<svg width="885" height="673" viewBox="0 0 885 673" fill="none" xmlns="http://www.w3.org/2000/svg">
<path d="M423.483 34.4323C415.407 35.3523 414.692 35.4545 402.017 38.5211C366.547 46.8008 329.134 69.698 307.975 95.9683C280.376 130.212 267.394 165.886 267.189 208.205C267.087 223.538 267.394 226.605 270.563 241.938C272.403 251.137 273.527 258.906 273.118 259.008C269.847 260.133 265.349 263.812 263.918 266.675C260.443 273.421 262.283 278.021 271.278 284.972L276.798 289.163L272.403 293.149C269.745 295.398 266.474 299.896 264.429 303.985L260.954 310.936L260.647 330.868C260.238 354.89 261.976 397.004 263.714 402.626C264.327 404.773 266.678 408.351 268.825 410.497C275.98 417.755 276.185 417.755 309.304 417.755H338.947L342.627 413.359L346.205 409.066L378.711 408.453C396.599 408.146 439.531 408.044 474.081 408.248L536.946 408.657L541.239 413.462L545.533 418.266L575.483 417.857C608.397 417.55 610.033 417.244 614.428 411.417C619.335 404.977 621.277 399.458 621.277 391.178C621.277 386.987 621.788 369.916 622.504 353.254C624.139 311.753 623.219 307.256 611.26 294.785L606.558 289.981L611.771 284.563C618.006 278.225 619.233 275.977 619.233 271.172C619.233 266.981 615.655 262.279 611.055 260.337C607.58 258.906 607.375 257.577 609.624 251.137C616.371 231.92 616.882 192.668 610.646 166.295C599.607 118.763 564.648 74.6045 520.591 52.5251C506.996 45.7786 492.379 40.1566 480.93 37.4989C465.495 33.9212 440.656 32.5923 423.483 34.4323ZM457.215 49.7652C483.077 52.6273 501.067 58.4538 521.102 70.5157C552.177 89.0174 577.323 117.741 589.691 148.407C596.029 164.455 598.891 178.255 599.504 196.961C600.22 216.792 598.584 238.155 595.62 247.56L593.576 254.204H585.194C579.265 254.204 576.096 254.715 574.665 255.737C573.643 256.555 572.416 257.27 572.11 257.27C571.701 257.27 569.656 254.204 567.51 250.524C560.763 238.973 552.79 233.044 535.822 227.014C514.356 219.347 478.374 215.769 431.66 216.689C400.279 217.303 377.075 219.756 357.04 224.458C339.254 228.751 326.374 237.235 318.095 250.115C315.232 254.408 313.699 256.044 312.575 255.635C308.179 253.795 302.148 253.079 296.015 253.488L289.064 254.102L287.02 247.457C283.749 236.724 282.829 228.342 282.624 208.205C282.522 192.463 282.931 187.455 284.771 178.05C287.838 162.615 289.167 158.015 293.562 147.385C313.392 99.7504 362.56 60.2938 412.545 51.8096C431.149 48.743 442.7 48.1297 457.215 49.7652ZM472.548 230.693C493.81 232.124 523.964 236.929 533.573 240.609C546.555 245.515 555.652 257.27 565.056 281.088C567.919 288.447 571.292 291.309 579.674 293.456C587.954 295.5 597.664 301.02 601.753 306.029C606.66 311.958 607.375 317.58 606.66 346.712C605.944 375.947 605.024 380.956 599.402 385.862C593.065 391.382 586.011 393.222 566.181 394.449C549.519 395.369 512.618 394.858 510.574 393.529C510.062 393.222 513.027 391.587 517.218 389.951C525.702 386.578 531.529 383 530.915 381.467C530.711 380.854 527.951 380.547 524.782 380.751C521.204 380.854 519.058 380.547 519.058 379.831C519.058 379.218 518.444 379.423 517.627 380.24C514.662 383.102 490.334 384.533 441.882 384.533C405.083 384.533 392.306 384.125 378.097 382.694C368.387 381.671 358.982 380.547 357.347 380.24C354.587 379.729 354.382 379.831 354.689 382.08C354.894 384.022 356.938 385.453 364.707 389.338L374.417 394.142H344.263C302.148 394.244 293.664 392.915 284.464 384.942C277.718 379.014 276.594 374.925 275.571 353.357C274.651 333.628 275.162 319.624 277.002 313.491C279.66 304.496 287.327 298.669 302.659 293.967C311.961 291.105 312.881 290.594 316.561 285.892C318.81 283.132 321.366 278.43 322.388 275.465C327.805 258.804 334.654 249.4 345.183 243.675C351.725 240.098 376.155 233.964 389.137 232.738C394.555 232.227 407.23 231.409 417.35 231.102C427.469 230.693 435.953 230.285 436.158 230.08C436.976 229.365 456.295 229.671 472.548 230.693ZM304.602 269.128C305.828 269.946 305.624 273.012 304.193 274.443C303.477 275.159 302.71 275.872 301.585 275.974C301.361 276.208 299.453 276.457 299.266 276.55C299.064 276.597 295.779 276.737 295.53 276.768C291.544 276.461 295.53 276.768 291.211 276.488C290.456 276.426 289.833 276.27 287.965 276.301C284.012 276.114 279.865 274.852 279.865 273.728C279.865 271.479 283.238 269.128 287.122 268.412C291.518 267.697 302.966 268.106 304.602 269.128ZM600.322 269.741C604.104 271.479 603.491 273.319 598.278 275.772C594.393 277.612 592.349 277.919 586.829 277.408C582.843 277.101 579.776 276.385 579.265 275.568C577.732 273.012 578.243 270.559 580.696 269.537C583.967 268.208 597.256 268.31 600.322 269.741Z" fill="white"/>
<path d="M387.297 105.884C380.755 108.132 377.279 110.688 374.213 115.186C371.249 119.479 370.942 127.35 373.702 129.803C376.871 132.767 379.937 131.847 384.537 126.941C388.524 122.75 389.239 122.341 393.737 122.341C399.052 122.341 401.301 124.079 406.821 132.461C409.274 136.038 410.194 136.652 413.158 136.652C417.656 136.652 419.905 133.687 419.905 127.656C419.905 118.865 412.443 109.972 401.812 105.986C395.168 103.533 394.248 103.533 387.297 105.884Z" fill="white"/>
<path d="M484.814 104.861C474.49 107.417 464.881 118.354 464.881 127.452C464.881 131.438 469.686 136.652 473.468 136.652C476.023 136.652 480.214 132.461 480.214 129.905C480.214 127.759 485.121 122.648 487.778 121.932C491.458 121.012 495.343 122.852 500.863 128.065C506.076 132.869 508.325 133.278 511.902 129.905C514.049 127.759 513.538 119.99 510.982 115.901C508.222 111.403 500.965 106.292 495.445 105.066C490.334 103.839 489.107 103.839 484.814 104.861Z" fill="white"/>
<path d="M365.626 152.496C364.195 153.313 362.355 155.358 361.64 156.993C359.697 161.695 363.275 167.931 374.315 179.073C382.186 186.841 385.252 189.192 393.839 193.588C413.771 203.707 426.038 206.672 444.846 205.854C460.997 205.139 472.548 202.174 486.449 195.428C500.556 188.477 508.733 181.935 517.933 170.384C523.759 163.024 524.475 160.878 522.737 156.584C521 152.598 518.444 150.962 513.742 150.962C509.04 150.962 506.178 153.313 505.258 157.811C503.316 168.135 478.681 183.264 457.726 186.841C448.117 188.579 430.433 188.068 421.949 185.819C398.439 179.788 380.55 167.931 378.301 156.789C377.279 151.473 371.248 149.429 365.626 152.496Z" fill="white"/>
<path d="M412.75 242.04C393.532 243.369 381.879 244.902 371.658 247.662C366.444 249.093 359.902 250.831 357.04 251.546C354.28 252.262 350.498 253.59 348.76 254.51C342.729 257.679 335.063 268.003 335.063 273.012C335.063 277.51 348.658 280.27 376.462 281.701C402.426 283.03 483.894 283.132 509.858 281.803C529.075 280.883 535.208 280.065 545.124 277.203C550.132 275.67 550.746 275.261 550.746 272.808C550.746 269.128 545.43 260.03 541.853 257.475C536.639 253.795 530.711 251.239 522.329 249.195C496.57 242.551 450.571 239.586 412.75 242.04Z" fill="white"/>
<path d="M292.233 306.745C291.415 307.767 291.313 308.38 292.131 308.891C292.744 309.198 292.949 310.016 292.642 310.527C291.62 312.06 295.198 318.398 299.184 321.975C302.251 324.735 304.806 325.86 312.677 327.597C330.77 331.686 335.881 332.197 345.898 330.459C350.907 329.539 356.325 328.415 357.858 328.006C360.72 327.291 360.72 327.188 358.778 325.451C355.711 322.691 345.081 318.806 329.645 314.922C321.877 312.98 311.859 310.016 307.362 308.38C298.366 305.007 294.073 304.598 292.233 306.745Z" fill="white"/>
<path d="M572.927 309.505C568.532 311.14 560.252 313.696 554.528 315.127C543.897 317.784 527.951 322.998 525.191 324.735C522.738 326.269 524.986 327.495 533.777 329.335C550.643 333.117 584.274 327.802 587.034 320.953C590.509 312.264 591.633 307.971 590.407 307.154C587.851 305.62 580.798 306.54 572.927 309.505Z" fill="white"/>
<path d="M414.283 329.437C400.075 330.766 369.409 336.081 368.08 337.41C366.649 338.841 369.613 341.601 373.498 342.419C375.644 342.93 387.911 343.032 400.586 342.828C427.674 342.215 426.549 341.908 435.851 353.254L441.678 360.41L450.469 351.312L459.26 342.317L484.814 342.726C511.494 343.135 515.071 342.726 515.787 338.841C516.502 335.059 506.996 333.117 472.548 329.846C448.424 327.597 435.238 327.495 414.283 329.437ZM453.638 334.446C453.638 335.264 453.229 335.979 452.718 335.979C452.206 335.979 449.651 338.126 447.096 340.784C444.54 343.339 442.291 345.281 442.087 345.077C441.882 344.872 440.962 343.339 439.94 341.806C439.02 340.272 436.567 338.228 434.727 337.308C427.98 334.139 430.127 332.913 442.393 332.913C451.695 332.913 453.638 333.219 453.638 334.446Z" fill="white"/>
<path d="M289.473 355.912C287.531 360.921 292.438 370.836 298.673 374.721C302.66 377.276 328.01 382.387 331.69 381.467C332.917 381.16 334.245 379.934 334.654 378.605C334.961 377.378 336.494 375.436 337.823 374.209C341.605 371.143 340.276 368.383 333.734 365.827C327.499 363.374 324.739 362.556 306.953 358.468C299.695 356.73 292.847 355.094 291.824 354.788C290.802 354.481 289.78 354.89 289.473 355.912Z" fill="white"/>
<path d="M584.989 356.423C557.083 363.681 545.328 367.872 544.817 370.734C544.715 371.552 546.35 374.209 548.599 376.56C551.461 379.831 553.301 380.956 555.448 380.956C559.332 380.956 579.163 377.378 582.536 376.049C584.989 375.129 591.531 368.485 591.633 366.85C591.736 366.441 592.145 364.09 592.656 361.534C593.78 355.401 592.349 354.481 584.989 356.423Z" fill="white"/>
<path d="M845.137 425.932C842.071 426.239 838.902 426.852 838.186 427.261C836.347 428.488 837.675 430.021 840.537 430.021C843.093 430.021 843.502 431.554 844.422 444.332C844.524 446.683 845.24 448.012 846.262 448.216C847.693 448.523 848 447.092 848.408 439.221C848.715 431.657 849.226 429.817 850.862 428.59C853.826 426.341 851.577 425.217 845.137 425.932Z" fill="white"/>
<path d="M854.95 435.643C855.053 440.958 855.564 445.865 855.87 446.376C857.404 448.829 858.426 446.989 858.426 441.98V436.665L861.186 441.572C862.719 444.229 864.355 446.274 864.968 446.069C865.581 445.865 867.012 443.207 868.137 440.14L870.181 434.621L870.692 440.754C871.101 445.251 871.612 446.989 872.839 447.194C874.27 447.5 874.474 446.274 873.963 437.483C873.452 427.568 872.839 425.932 869.466 425.932C868.341 425.932 867.421 427.465 866.603 431.043C865.07 437.176 863.639 437.176 861.39 430.941C860.061 427.465 859.141 426.341 857.097 426.136L854.542 425.83L854.95 435.643Z" fill="white"/>
<path d="M374.213 440.959C369.511 441.163 365.729 441.47 365.729 441.776C365.729 442.901 375.542 459.051 383.821 471.727L393.532 486.344L392.817 498.61L392.101 510.774H394.554C395.985 510.774 399.972 510.468 403.447 510.161L409.683 509.446V497.486V485.526L418.167 472.34C425.731 460.687 436.26 442.799 436.26 441.674C436.26 441.47 432.171 441.265 427.162 441.265C419.394 441.265 417.963 441.572 417.451 443.003C416.634 445.252 402.221 466.718 401.505 466.82C400.79 466.82 385.866 444.639 384.946 442.185C384.537 441.163 383.821 440.345 383.412 440.448C383.004 440.55 378.813 440.856 374.213 440.959Z" fill="white"/>
<path d="M638.348 441.878C631.908 443.821 623.935 451.487 622.401 457.109C617.904 473.362 627.206 482.562 649.796 484.197C661.347 485.015 663.698 485.628 664.618 487.775C665.436 489.922 661.551 494.113 658.076 494.828C653.578 495.646 640.903 493.704 636.099 491.353L632.01 489.308L626.184 495.135C622.913 498.406 620.255 501.37 620.255 501.779C620.255 503.312 634.259 509.548 640.494 510.774C649.49 512.614 662.471 511.694 668.809 508.832C680.155 503.823 685.88 493.704 683.529 483.175C681.382 473.464 673.92 469.069 657.667 467.74C651.432 467.127 644.788 466.309 643.05 465.696C638.859 464.367 638.654 461.607 642.539 458.642C644.992 456.598 646.219 456.394 653.476 456.905C661.143 457.314 669.32 459.971 669.32 461.913C669.32 463.651 670.956 462.629 672.591 459.869C673.511 458.336 676.169 454.963 678.52 452.305L682.711 447.501L679.747 445.967C678.213 445.149 674.022 443.514 670.547 442.39C662.88 439.732 646.014 439.527 638.348 441.878Z" fill="white"/>
<path d="M57.0264 475.406V509.547L59.3774 510.161C62.2396 510.876 68.1683 510.876 71.1326 510.161C73.2792 509.547 73.3815 509.138 73.3815 497.485V485.526L78.0835 484.81C80.7412 484.504 87.5899 484.197 93.4164 484.197C105.989 484.197 105.581 483.686 104.558 499.121L103.843 509.752H112.634H121.425V475.508V441.265H117.131C114.678 441.265 110.998 441.571 108.954 441.878L105.069 442.594V448.318C105.069 451.487 104.763 457.109 104.354 460.891L103.741 467.842H89.1232H74.4037V458.335C74.4037 453.224 74.097 447.194 73.7903 445.047L73.0748 441.265H65.1017H57.0264V475.406Z" fill="white"/>
<path d="M163.335 442.39C163.335 444.025 150.046 473.873 141.46 491.353C137.166 500.042 133.691 507.708 133.691 508.424C133.691 509.344 135.326 509.752 138.597 509.855C141.255 509.855 144.526 510.059 145.855 510.366C148.922 510.979 150.25 509.752 154.033 503.21C156.997 497.895 157.201 497.793 162.517 497.179C165.481 496.771 172.534 496.464 178.156 496.464H188.48L191.343 503.108C192.876 506.788 194.716 509.752 195.431 509.855C198.907 510.059 211.889 509.548 212.298 509.139C213.013 508.526 209.333 499.837 198.089 475.509C192.671 463.651 187.152 451.181 185.823 447.603L183.574 441.265H173.454C166.912 441.265 163.335 441.674 163.335 442.39ZM178.974 472.442L182.45 480.62L173.761 480.927C169.059 481.131 164.868 481.029 164.663 480.722C164.357 480.415 165.788 477.144 167.832 473.26C169.877 469.478 172.023 464.878 172.636 463.243C173.659 460.38 173.863 460.38 174.681 462.22C175.09 463.345 177.032 467.945 178.974 472.442Z" fill="white"/>
<path d="M226.301 446.58C225.484 454.451 225.177 509.752 225.995 509.752C226.404 509.752 230.186 509.752 234.377 509.752H242.043V500.143V490.637L253.083 490.024C275.264 488.899 285.895 481.744 286.815 467.433C287.429 457.211 282.726 449.34 272.709 444.127C268.416 441.981 266.78 441.776 247.563 441.469L226.915 441.163L226.301 446.58ZM263.305 458.029C267.598 460.278 269.234 463.958 267.598 467.842C265.451 473.157 263.203 473.975 251.55 473.975H241.021V466.922C241.021 456.393 240.817 456.598 251.447 456.598C257.274 456.598 261.567 457.109 263.305 458.029Z" fill="white"/>
<path d="M300.82 445.558C300.411 447.909 300.308 463.446 300.513 479.904L300.922 509.854L308.895 510.16C314.006 510.365 316.97 510.058 317.175 509.343C317.379 508.729 317.89 504.232 318.197 499.427L318.912 490.637L330.259 490.023C336.596 489.717 343.343 488.899 345.387 488.286C354.996 485.526 362.662 475.508 362.662 465.593C362.662 459.357 358.88 451.589 354.28 448.113C346.103 441.98 345.285 441.776 322.592 441.469L301.433 441.06L300.82 445.558ZM341.298 459.562C344.672 462.935 344.876 464.673 342.729 468.864C340.787 472.646 337.925 473.464 326.885 473.464H318.197L317.89 464.98L317.583 456.598H327.908C338.027 456.598 338.334 456.7 341.298 459.562Z" fill="white"/>
<path d="M472.241 449.136L472.548 457.109L484.099 457.416L495.752 457.723L494.934 484.197L494.218 510.774H502.907C511.085 510.774 511.698 510.672 512.311 508.423C512.618 507.197 512.925 495.237 512.925 481.846V457.62H522.124C529.791 457.62 531.631 457.314 533.266 455.678C534.902 454.043 537.457 445.763 537.457 442.287C537.457 441.674 524.68 441.265 504.747 441.265H471.935L472.241 449.136Z" fill="white"/>
<path d="M549.212 475.815V510.263L568.634 510.57C579.367 510.774 591.838 510.57 596.438 510.263L604.922 509.547L606.353 504.334C609.215 494.112 610.34 495.032 594.7 494.317C587.136 493.908 577.527 493.601 573.541 493.499L566.079 493.397V488.899V484.504L581.207 483.788C598.175 482.97 598.891 482.561 600.731 475.508C602.775 467.229 604.002 467.74 583.763 467.842L565.67 468.046L565.976 463.549C566.079 461.198 566.385 458.949 566.692 458.744C566.896 458.54 574.563 458.131 583.66 457.824C592.86 457.62 601.14 456.904 602.06 456.393C604.513 455.167 606.762 450.669 607.58 445.456L608.295 441.265H578.754H549.212V475.815Z" fill="white"/>
<path d="M698.964 474.18C698.964 492.375 699.373 507.708 699.782 508.424C700.293 509.241 708.266 509.65 726.768 509.957L752.936 510.264L755.082 502.495C756.309 498.202 757.229 494.42 757.229 494.011C757.229 493.704 748.029 493.397 736.785 493.397H716.443L716.954 467.332L717.363 441.266H708.164H698.964V474.18Z" fill="white"/>
<path d="M789.53 443.514C789.224 444.843 788.917 446.887 788.917 448.012C788.917 449.238 785.646 457.723 781.659 466.922C777.673 476.122 772.868 487.366 771.029 491.864C769.291 496.361 767.042 501.472 766.122 503.312C765.1 505.152 764.384 507.503 764.384 508.73C764.384 510.57 764.998 510.774 772.562 510.774H780.739L783.908 503.619L787.179 496.464H802.205H817.232L819.787 503.312L822.343 510.263L831.44 509.854C836.449 509.752 840.742 509.343 840.947 509.139C841.355 508.832 837.062 499.224 823.16 468.864C816.312 453.94 813.041 446.376 812.018 443.003C811.507 441.47 810.076 441.265 800.774 441.265C790.655 441.265 790.144 441.367 789.53 443.514ZM805.885 470.602C807.827 474.998 809.361 479.086 809.361 479.802C809.361 480.722 807.112 481.131 801.183 481.131C795.868 481.131 793.006 480.722 793.006 480.006C793.006 478.064 801.183 461.402 801.797 462.016C802.205 462.322 803.943 466.207 805.885 470.602Z" fill="white"/>
<path d="M108.357 593.841C104.218 593.841 100.4 592.881 96.901 590.961C93.445 588.998 90.693 586.289 88.645 582.833C86.6397 579.334 85.637 575.409 85.637 571.057C85.637 566.705 86.6397 562.801 88.645 559.345C90.693 555.889 93.445 553.201 96.901 551.281C100.4 549.318 104.218 548.337 108.357 548.337C112.538 548.337 116.357 549.318 119.813 551.281C123.312 553.201 126.064 555.889 128.069 559.345C130.074 562.801 131.077 566.705 131.077 571.057C131.077 575.409 130.074 579.334 128.069 582.833C126.064 586.289 123.312 588.998 119.813 590.961C116.357 592.881 112.538 593.841 108.357 593.841ZM108.357 587.505C111.301 587.505 113.925 586.844 116.229 585.521C118.533 584.156 120.325 582.236 121.605 579.761C122.928 577.244 123.589 574.342 123.589 571.057C123.589 567.772 122.928 564.892 121.605 562.417C120.325 559.942 118.533 558.044 116.229 556.721C113.925 555.398 111.301 554.737 108.357 554.737C105.413 554.737 102.789 555.398 100.485 556.721C98.181 558.044 96.3677 559.942 95.045 562.417C93.765 564.892 93.125 567.772 93.125 571.057C93.125 574.342 93.765 577.244 95.045 579.761C96.3677 582.236 98.181 584.156 100.485 585.521C102.789 586.844 105.413 587.505 108.357 587.505ZM164.433 548.913V554.865H145.553V567.985H160.273V573.937H145.553V593.393H138.257V548.913H164.433ZM197.37 548.913V554.865H178.49V567.985H193.21V573.937H178.49V593.393H171.194V548.913H197.37ZM211.428 548.913V593.393H204.132V548.913H211.428ZM218.575 571.057C218.575 566.705 219.577 562.801 221.583 559.345C223.631 555.889 226.383 553.201 229.839 551.281C233.337 549.318 237.156 548.337 241.295 548.337C246.031 548.337 250.233 549.51 253.903 551.857C257.615 554.161 260.303 557.446 261.967 561.713H253.199C252.047 559.366 250.447 557.617 248.399 556.465C246.351 555.313 243.983 554.737 241.295 554.737C238.351 554.737 235.727 555.398 233.423 556.721C231.119 558.044 229.305 559.942 227.983 562.417C226.703 564.892 226.063 567.772 226.063 571.057C226.063 574.342 226.703 577.222 227.983 579.697C229.305 582.172 231.119 584.092 233.423 585.457C235.727 586.78 238.351 587.441 241.295 587.441C243.983 587.441 246.351 586.865 248.399 585.713C250.447 584.561 252.047 582.812 253.199 580.465H261.967C260.303 584.732 257.615 588.017 253.903 590.321C250.233 592.625 246.031 593.777 241.295 593.777C237.113 593.777 233.295 592.817 229.839 590.897C226.383 588.934 223.631 586.225 221.583 582.769C219.577 579.313 218.575 575.409 218.575 571.057ZM277.803 548.913V593.393H270.507V548.913H277.803ZM314.198 584.305H295.574L292.374 593.393H284.758L300.694 548.849H309.142L325.078 593.393H317.398L314.198 584.305ZM312.15 578.353L304.918 557.681L297.622 578.353H312.15ZM339.303 587.505H354.343V593.393H332.007V548.913H339.303V587.505ZM405.805 548.913V554.865H393.965V593.393H386.669V554.865H374.765V548.913H405.805ZM420.49 554.801V567.857H435.85V573.809H420.49V587.441H437.77V593.393H413.194V548.849H437.77V554.801H420.49ZM461.413 593.841C458.426 593.841 455.738 593.329 453.349 592.305C450.959 591.238 449.082 589.745 447.717 587.825C446.351 585.905 445.669 583.665 445.669 581.105H453.477C453.647 583.025 454.394 584.604 455.717 585.841C457.082 587.078 458.981 587.697 461.413 587.697C463.93 587.697 465.893 587.1 467.301 585.905C468.709 584.668 469.413 583.089 469.413 581.169C469.413 579.676 468.965 578.46 468.069 577.521C467.215 576.582 466.127 575.857 464.805 575.345C463.525 574.833 461.733 574.278 459.429 573.681C456.527 572.913 454.159 572.145 452.325 571.377C450.533 570.566 448.997 569.329 447.717 567.665C446.437 566.001 445.797 563.782 445.797 561.009C445.797 558.449 446.437 556.209 447.717 554.289C448.997 552.369 450.789 550.897 453.093 549.873C455.397 548.849 458.063 548.337 461.093 548.337C465.402 548.337 468.922 549.425 471.653 551.601C474.426 553.734 475.962 556.678 476.261 560.433H468.197C468.069 558.812 467.301 557.425 465.893 556.273C464.485 555.121 462.629 554.545 460.325 554.545C458.234 554.545 456.527 555.078 455.205 556.145C453.882 557.212 453.221 558.748 453.221 560.753C453.221 562.118 453.626 563.249 454.437 564.145C455.29 564.998 456.357 565.681 457.637 566.193C458.917 566.705 460.666 567.26 462.885 567.857C465.829 568.668 468.218 569.478 470.053 570.289C471.93 571.1 473.509 572.358 474.789 574.065C476.111 575.729 476.773 577.969 476.773 580.785C476.773 583.046 476.154 585.18 474.917 587.185C473.722 589.19 471.951 590.812 469.605 592.049C467.301 593.244 464.57 593.841 461.413 593.841ZM492.678 587.505H507.718V593.393H485.382V548.913H492.678V587.505ZM540.635 584.305H522.011L518.811 593.393H511.195L527.131 548.849H535.579L551.515 593.393H543.835L540.635 584.305ZM538.587 578.353L531.355 557.681L524.059 578.353H538.587ZM598.173 593.393L587.933 575.601H582.365V593.393H575.069V548.913H590.429C593.842 548.913 596.722 549.51 599.069 550.705C601.458 551.9 603.229 553.5 604.381 555.505C605.576 557.51 606.173 559.75 606.173 562.225C606.173 565.126 605.32 567.772 603.613 570.161C601.949 572.508 599.368 574.108 595.869 574.961L606.877 593.393H598.173ZM582.365 569.777H590.429C593.16 569.777 595.208 569.094 596.573 567.729C597.981 566.364 598.685 564.529 598.685 562.225C598.685 559.921 598.002 558.129 596.637 556.849C595.272 555.526 593.202 554.865 590.429 554.865H582.365V569.777ZM622.803 554.801V567.857H638.163V573.809H622.803V587.441H640.083V593.393H615.507V548.849H640.083V554.801H622.803ZM685.613 593.393H678.317L656.365 560.177V593.393H649.069V548.849H656.365L678.317 582.001V548.849H685.613V593.393ZM723.93 548.913V554.865H712.09V593.393H704.794V554.865H692.89V548.913H723.93ZM758.135 584.305H739.511L736.311 593.393H728.695L744.631 548.849H753.079L769.015 593.393H761.335L758.135 584.305ZM756.087 578.353L748.855 557.681L741.559 578.353H756.087ZM783.24 587.505H798.28V593.393H775.944V548.913H783.24V587.505Z" fill="white"/>
<path d="M626.487 110.29C636.273 102.98 648.036 98.8123 656.7 90.1482" stroke="white" stroke-width="13" stroke-linecap="round"/>
<path d="M626.487 110.29C636.273 102.98 648.036 98.8123 656.7 90.1482" stroke="white" stroke-width="13" stroke-linecap="round"/>
<path d="M641.593 164.585C655.353 164.585 670.98 166.023 684.217 161.611" stroke="white" stroke-width="13" stroke-linecap="round"/>
<path d="M641.593 164.585C655.353 164.585 670.98 166.023 684.217 161.611" stroke="white" stroke-width="13" stroke-linecap="round"/>
<path d="M640.602 216.13C645.987 219.287 652.396 219.594 658.004 222.298C664.001 225.189 669.902 228.092 676.287 230.007" stroke="white" stroke-width="13" stroke-linecap="round"/>
<path d="M640.602 216.13C645.987 219.287 652.396 219.594 658.004 222.298C664.001 225.189 669.902 228.092 676.287 230.007" stroke="white" stroke-width="13" stroke-linecap="round"/>
<path d="M255.997 122.952C246.746 116.168 235.304 107.794 224.277 104.119" stroke="white" stroke-width="13" stroke-linecap="round"/>
<path d="M255.997 122.952C246.746 116.168 235.304 107.794 224.277 104.119" stroke="white" stroke-width="13" stroke-linecap="round"/>
<path d="M244.664 169.917C237.765 167.986 228.934 168.261 218.447 165.502C208.789 163.018 204.75 162.988 200.487 160.62" stroke="white" stroke-width="13" stroke-linecap="round"/>
<path d="M244.664 169.917C237.765 167.986 228.934 168.261 218.447 165.502C208.789 163.018 204.75 162.988 200.487 160.62" stroke="white" stroke-width="13" stroke-linecap="round"/>
<path d="M236.172 218.112C224.505 221.797 210.902 230.084 201.479 237.937" stroke="white" stroke-width="13" stroke-linecap="round"/>
<path d="M236.172 218.112C224.505 221.797 210.902 230.084 201.479 237.937" stroke="white" stroke-width="13" stroke-linecap="round"/>
</svg>
